<svg xmlns="http://www.w3.org/2000/svg" width="53" height="36">
    <path fill="#0E7086" fill-rule="evenodd" d="M41.403 33.243c-4.596.846-8.528 2.711-12.326 1.895 5.584-5.13 12.873-3.673 19.155-6.111-4.147-2.91-7.822-5.943-10.323-9.28.555-.637 1.019-1.626 1.78-1.468 3.096 3.061 7.557 6.029 11.572 9.1 6.226 4.762-7.028 5.344-9.858 5.864zm-.528-6.488c-6.159.883-15.339 1.696-23.999-3.147C7.933 18.607-4.853 7.39 2.65.361c-.791 16.157 24.014 26.492 37.636 24.675.231.564.427 1.137.589 1.719z"/>
</svg>
