<svg xmlns="http://www.w3.org/2000/svg" width="75" height="78">
    <path fill="#007087" fill-rule="evenodd" d="M69.248 25.433c-.013-.027-.013-.056-.027-.083-.015-.026-.04-.04-.056-.065-1.304-2.254-2.847-4.351-4.599-6.252l2.771-2.791 1.824 1.839 5.471-5.516-5.471-5.515-5.473 5.515 1.825 1.839-2.771 2.791c-1.886-1.765-3.965-3.321-6.203-4.636-.024-.017-.038-.041-.064-.057-.027-.015-.056-.014-.083-.028-3.989-2.317-8.472-3.86-13.251-4.426V6.5h1.935c1.779 0 3.225-1.457 3.225-3.25S46.854 0 45.075 0H33.466c-1.779 0-3.225 1.457-3.225 3.25s1.446 3.25 3.225 3.25h1.935v1.503c-1.393.15-2.784.378-4.159.696-.694.159-1.128.857-.969 1.557.159.699.852 1.139 1.546.976 1.186-.274 2.385-.481 3.586-.62l1.384-.108c.423-.032.812-.056 1.192-.074V13c0 .719.576 1.3 1.289 1.3.714 0 1.29-.581 1.29-1.3v-2.561c4.852.225 9.423 1.538 13.487 3.699l-1.272 2.219c-.356.622-.144 1.417.472 1.776.203.118.425.174.644.174.446 0 .88-.233 1.119-.65l1.267-2.214c4.036 2.58 7.465 6.036 10.025 10.104l-2.196 1.278c-.616.358-.827 1.152-.47 1.775.24.418.672.65 1.118.65.22 0 .442-.056.644-.174l2.202-1.282c2.173 4.155 3.48 8.837 3.675 13.805h-2.548c-.713 0-1.289.581-1.289 1.3 0 .719.576 1.3 1.289 1.3h2.548c-.195 4.967-1.502 9.65-3.675 13.804l-2.202-1.281c-.616-.359-1.406-.148-1.762.476-.356.622-.144 1.416.472 1.775l2.197 1.278c-2.56 4.068-5.989 7.523-10.025 10.104l-1.268-2.214c-.357-.624-1.148-.836-1.762-.476-.618.359-.829 1.155-.472 1.776l1.272 2.219c-4.065 2.161-8.636 3.474-13.487 3.699V72.8c0-.719-.577-1.3-1.29-1.3-.713 0-1.29.581-1.29 1.3v2.569c-2.06-.071-4.126-.332-6.16-.802-.694-.168-1.387.277-1.546.976-.16.7.275 1.398.969 1.557 2.575.599 5.205.9 7.814.9.063 0 .124-.004.187-.005.009 0 .016.005.023.005.011 0 .02-.006.03-.006 6.2-.043 12.018-1.731 17.051-4.645.04-.019.083-.027.121-.051.026-.015.04-.04.065-.057 5.21-3.06 9.563-7.442 12.605-12.689.025-.036.056-.063.078-.102.015-.027.014-.056.027-.083 2.946-5.148 4.64-11.11 4.64-17.467 0-6.357-1.694-12.319-4.639-17.467zm-.089-14.706l1.824 1.838-1.824 1.839-1.825-1.839 1.825-1.838zm-31.178-2.9V3.9h-4.515c-.355 0-.645-.292-.645-.65 0-.357.29-.65.645-.65h11.609c.355 0 .645.293.645.65 0 .358-.29.65-.645.65H40.56v3.927c-.449-.018-.877-.027-1.29-.027l-.113.003-.097-.003c-.211 0-.423.014-.634.018-.15.004-.291.003-.445.009z"/>
    <path fill="#007087" fill-rule="evenodd" d="M44.96 21.182C32.4 37.705 33.306 36.519 33.193 36.651v11.193l4.852-.073c1.536-.019 2.675 1.39 2.386 2.89L37.83 64.172c-.253 1.315-1.511 2.173-2.809 1.917-1.297-.257-2.144-1.531-1.891-2.846l2.036-10.576c-8.02.122-.138.02-8.176.02l-2.421 5.921 2.772 11.121c.324 1.3-.453 2.619-1.735 2.947-1.281.328-2.584-.458-2.908-1.758l-2.966-11.902c-.126-.506-.088-1.04.109-1.523l2.783-6.807V36.979l-7.047-2.349c-.447-.149-.827-.452-1.074-.857l-4.729-7.749c-.579-.95-.29-2.196.648-2.783.937-.587 2.166-.294 2.746.656l4.346 7.122 6.879 2.292h6.31l11.095-14.596c.673-.885 1.926-1.05 2.798-.368.873.681 1.036 1.951.364 2.835zM27.93 31.976c-2.282 0-4.135-1.875-4.135-4.19 0-2.315 1.851-4.191 4.135-4.191s4.135 1.876 4.136 4.191c0 2.321-1.862 4.19-4.136 4.19zM13.9 21.723c-1.284-.989-3.086-1.132-4.54-.222-1.885 1.182-2.469 3.688-1.302 5.599l2.847 4.666c-.503.371-1.158.523-1.809.359l-7.073-1.789C.858 30.041.149 28.845.44 27.664L3.149 16.67c.29-1.181 1.471-1.899 2.636-1.604l7.073 1.789c1.165.295 1.874 1.491 1.584 2.672l-.542 2.196zm-7.053-3.624c-.018-.223-.259-.386-.53-.449s-.558-.023-.67.171L3.73 21.203c-.011.023-.023.046-.027.064-.05.22.249.459.503.518.147.034.275.014.339-.103l.368-.699 1.242.288.031.792c.007.133.114.208.261.243.253.058.625-.025.675-.246.004-.018.004-.043.003-.068l-.278-3.893zm2.581.143l-.495-.115.113-.501c.028-.126-.072-.281-.268-.326-.186-.043-.358.048-.387.174l-.113.502-.5-.116c-.145-.034-.276.09-.318.278-.045.198.023.352.167.385l.501.116-.115.507c-.033.146.089.279.275.322.196.046.347-.024.38-.17l.115-.507.495.115c.124.029.277-.073.322-.272.042-.188-.048-.363-.172-.392zm-3.374.571l.068 1.697-.859-.199.791-1.498z"/>
</svg>
