<svg xmlns="http://www.w3.org/2000/svg" width="91" height="30">
    <path fill="#0269B8" fill-rule="evenodd" d="M35.376 24.893c-.806-.922-1.253-2.408-1.253-4.254 0-1.823.447-3.308 1.253-4.231.76-.901 2.258-1.351 4.159-1.351 1.879 0 3.377.45 4.138 1.351.804.923 1.252 2.408 1.252 4.231 0 1.846-.448 3.332-1.252 4.254-.761.878-2.259 1.329-4.138 1.329-1.901 0-3.399-.451-4.159-1.329zm4.338.451c1.565 0 2.684-.473 3.154-1.058.559-.675 1.006-1.801 1.006-3.647 0-1.823-.447-2.971-1.006-3.646-.47-.563-1.589-1.035-3.154-1.035h-.38c-1.566 0-2.684.472-3.131 1.035-.582.675-1.029 1.823-1.029 3.646 0 1.846.447 2.972 1.029 3.647.447.585 1.565 1.058 3.131 1.058h.38zm7.558.405v-5.222c0-2.094.224-3.376.716-4.097.715-1.013 1.968-1.35 3.779-1.35 1.745 0 3.064.315 3.691 1.328.603-1.013 1.945-1.328 3.667-1.328 1.811 0 3.064.337 3.802 1.35.492.721.715 2.003.715 4.097v5.222c0 .247-.067.338-.492.338-.447 0-.514-.091-.514-.338V20.82c0-2.656-.223-3.489-.671-4.007-.447-.518-1.252-.788-2.661-.788h-.358c-1.744 0-2.996.473-2.996 1.823v7.901c0 .247-.068.338-.492.338-.426 0-.515-.091-.515-.338v-7.901c0-1.35-1.253-1.823-2.996-1.823h-.336c-1.409 0-2.215.27-2.684.788-.447.518-.671 1.351-.671 4.007v4.929c0 .247-.067.338-.492.338-.424 0-.492-.091-.492-.338zm19.03 0v-5.222c0-2.094.246-3.376.783-4.097.783-1.013 2.17-1.35 4.16-1.35 1.99 0 3.399.337 4.182 1.35.536.721.783 2.003.783 4.097v5.222c0 .247-.067.338-.492.338s-.493-.091-.493-.338V20.82c0-2.656-.246-3.489-.76-4.007-.514-.518-1.431-.788-3.019-.788h-.381c-1.587 0-2.504.27-3.018.788-.515.518-.761 1.351-.761 4.007v4.929c0 .247-.067.338-.491.338-.425 0-.493-.091-.493-.338zm12.5-12.403c-.134-.135-.178-.315-.178-.562 0-.248.044-.405.178-.563.09-.09.269-.157.582-.157.313 0 .492.067.582.157.134.158.179.315.179.563 0 .247-.045.427-.179.562-.09.09-.269.181-.582.181-.313 0-.492-.091-.582-.181zm.09 12.403V15.53c0-.225.067-.338.492-.338s.492.113.492.338v10.219c0 .247-.067.338-.492.338s-.492-.091-.492-.338zm3.309-1.328c-.134-.203-.111-.315.224-.54.358-.225.47-.203.603.023.604 1.102 1.812 1.44 3.467 1.44h.447c1.789 0 3.019-.72 3.019-2.139-.022-1.35-.671-1.823-2.549-2.003l-1.745-.18c-2.28-.248-3.444-.788-3.444-2.836 0-2.206 1.745-3.129 4.116-3.129 1.833 0 3.287.383 4.137 1.801.134.203.111.338-.224.54-.358.248-.47.203-.603-.022-.605-1.081-1.79-1.441-3.132-1.441h-.335c-1.699 0-2.907.72-2.907 2.138.022 1.351.671 1.846 2.415 2.026l1.767.18c2.37.248 3.556.766 3.556 2.814 0 2.206-1.745 3.129-4.227 3.129-2.281 0-3.712-.383-4.585-1.801zm-55.527 5.582c-1.391 0-2.469-.338-4.121-1.292-1.328-.768-2.57-1.62-3.691-2.532-.175-.142-.267-.363-.246-.589.022-.225.154-.425.352-.531 3.993-2.143 4.607-2.473 1.68-8.496-1.741-3.586-2.238-4.289-4.026-4.289-1.174 0-2.104.403-2.762 1.199-.96 1.159-1.283 3.069-.887 5.24.067.367-.175.719-.539.786-.362.067-.714-.176-.781-.542-.468-2.566-.04-4.88 1.176-6.348.912-1.103 2.224-1.686 3.793-1.686 2.781 0 3.6 1.687 5.231 5.047 3.108 6.394 2.35 7.712-1.346 9.784.847.634 1.757 1.233 2.714 1.786 1.629.941 2.441 1.113 3.453 1.113 1.043 0 2.285-.329 2.285-1.896 0-1.418-.459-4.787-3.531-11.419-2.558-5.524-4.142-7.121-7.061-7.121-1.534 0-2.6.336-4.274 1.043-.17.073-.364.07-.534-.006-.169-.076-.299-.22-.359-.397-.153-.444-.288-.852-.412-1.227-.74-2.23-1.078-3.247-2.463-4.613C9.104 1.81 5.256.964 1.746 1.531c-.444 3.318.97 7.356 2.195 8.478 1.35 1.236 2.912 1.741 6.19 2.002.369.029.644.354.615.726-.028.372-.357.647-.721.62-3.067-.244-5.193-.706-6.987-2.349C1.31 9.425-.207 4.529.503.823c.051-.27.26-.481.528-.535 3.81-.759 8.497.049 10.234 1.765 1.615 1.593 2.035 2.856 2.796 5.149.056.173.116.352.178.538 1.278-.511 2.488-.873 4.128-.873 3.927 0 5.798 2.548 8.276 7.901 3.023 6.523 3.658 10.121 3.658 11.989 0 2.002-1.39 3.246-3.627 3.246zm.407-17.087c2.705-.215 4.581-.624 6.171-2.08 1.529-1.401 2.873-5.729 2.248-9.003-.051-.27-.26-.481-.528-.535-3.363-.669-7.505.049-9.044 1.569-1.272 1.254-1.693 2.23-2.291 4.011-.119.353.069.736.42.855.35.119.732-.069.85-.423.553-1.643.885-2.418 1.96-3.479 1.049-1.036 4.351-1.763 7.387-1.289.361 2.87-.853 6.331-1.905 7.295-1.167 1.069-2.523 1.506-5.374 1.733-.37.029-.645.354-.616.726.028.354.321.622.668.622l.054-.002zm-9.736 3.12c0-1.253-.214-1.747-1.095-1.747-.88 0-1.095.494-1.095 1.747v.001c0 1.254.215 1.747 1.095 1.747.881 0 1.095-.493 1.095-1.747v-.001z"/>
</svg>
