<svg xmlns="http://www.w3.org/2000/svg" width="19" height="17">
    <path fill="#B0907E" fill-rule="evenodd" d="M10.84 8.289l7.472-6.637c.378-.335.412-.913.077-1.292-.335-.379-.914-.412-1.293-.077L9.462 7.064 1.828.283C1.451-.052.872-.019.535.36c-.337.379-.302.955.077 1.292l7.473 6.637-7.473 6.636c-.377.335-.412.914-.077 1.293.181.203.432.307.685.307.217 0 .434-.077.608-.23l7.634-6.781 7.634 6.781c.174.155.392.23.608.23.253 0 .504-.104.685-.307.335-.377.302-.955-.077-1.293L10.84 8.289z"/>
</svg>
