<?xml version="1.0" encoding="utf-8"?>
<!-- Generator: Adobe Illustrator 19.2.0, SVG Export Plug-In . SVG Version: 6.00 Build 0)  -->
<svg version="1.1" id="Layer_1" xmlns="http://www.w3.org/2000/svg" xmlns:xlink="http://www.w3.org/1999/xlink" x="0px" y="0px"
	 viewBox="0 0 417 322" style="enable-background:new 0 0 417 322;" xml:space="preserve">
<style type="text/css">
	.st0{fill:#FFFFFF;}
</style>
<g>
	<path class="st0" d="M167,0.3H25.1c-13.8,0-25,11.2-25,25v271.3c0,13.8,11.2,25,25,25H167c13.8,0,25-11.2,25-25V25.3
		C192,11.6,180.7,0.3,167,0.3z M25.1,10.3H167c8.3,0,15,6.7,15,15v5.8H10.1v-5.8C10.1,17.1,16.9,10.3,25.1,10.3z M182,41.2v215H10.1
		v-215H182z M167,311.7H25.1c-8.3,0-15-6.7-15-15v-30.5H182v30.5C182,304.9,175.2,311.7,167,311.7z"/>
	<circle class="st0" cx="96" cy="288.3" r="11.4"/>
	<path class="st0" d="M391.9,129.4H210.5v10h165.7v171.8H210.5v10h181.3c13.8,0,25-11.2,25-25V154.4
		C416.9,140.6,405.6,129.4,391.9,129.4z M406.9,296.2c0,8.3-6.7,15-15,15h-5.6V139.4h5.6c8.3,0,15,6.7,15,15V296.2z"/>
	<path class="st0" d="M336.7,82.8l-6.5-7.4l-7.5,6.6l19.8,22.6l17.7-22.1l-7.8-6.2l-5.5,6.8c-2.6-20.6-16.8-31.8-40.6-31.8h-86v10
		h86C324.3,61.2,334.3,68.2,336.7,82.8z"/>
</g>
</svg>
